<mxfile host="Electron" agent="Mozilla/5.0 (Windows NT 10.0; Win64; x64) AppleWebKit/537.36 (KHTML, like Gecko) draw.io/26.0.4 Chrome/128.0.6613.186 Electron/32.2.5 Safari/537.36" version="26.0.4">
  <diagram name="Seite-1" id="9e3EEUq1_e8k2oGPJvK-">
    <mxGraphModel dx="2977" dy="1035" grid="1" gridSize="10" guides="1" tooltips="1" connect="1" arrows="1" fold="1" page="1" pageScale="1" pageWidth="827" pageHeight="1169" math="0" shadow="0">
      <root>
        <mxCell id="0" />
        <mxCell id="1" parent="0" />
        <mxCell id="dHXijJGids8KDnf2CaCL-2" value="enum Geschlecht" style="swimlane;fontStyle=1;align=center;verticalAlign=top;childLayout=stackLayout;horizontal=1;startSize=26;horizontalStack=0;resizeParent=1;resizeParentMax=0;resizeLast=0;collapsible=1;marginBottom=0;whiteSpace=wrap;html=1;fillColor=#FFD3B0;" vertex="1" parent="1">
          <mxGeometry x="-50" y="1120" width="160" height="74" as="geometry" />
        </mxCell>
        <mxCell id="dHXijJGids8KDnf2CaCL-3" value="&lt;div&gt;&amp;nbsp; HERREN&lt;/div&gt;&lt;div&gt;&amp;nbsp; DAMEN&lt;/div&gt;" style="text;strokeColor=none;fillColor=none;align=left;verticalAlign=top;spacingLeft=4;spacingRight=4;overflow=hidden;rotatable=0;points=[[0,0.5],[1,0.5]];portConstraint=eastwest;whiteSpace=wrap;html=1;" vertex="1" parent="dHXijJGids8KDnf2CaCL-2">
          <mxGeometry y="26" width="160" height="40" as="geometry" />
        </mxCell>
        <mxCell id="dHXijJGids8KDnf2CaCL-4" value="" style="line;strokeWidth=1;fillColor=none;align=left;verticalAlign=middle;spacingTop=-1;spacingLeft=3;spacingRight=3;rotatable=0;labelPosition=right;points=[];portConstraint=eastwest;strokeColor=inherit;" vertex="1" parent="dHXijJGids8KDnf2CaCL-2">
          <mxGeometry y="66" width="160" height="8" as="geometry" />
        </mxCell>
        <mxCell id="dHXijJGids8KDnf2CaCL-6" value="enum Altersgruppe" style="swimlane;fontStyle=1;align=center;verticalAlign=top;childLayout=stackLayout;horizontal=1;startSize=26;horizontalStack=0;resizeParent=1;resizeParentMax=0;resizeLast=0;collapsible=1;marginBottom=0;whiteSpace=wrap;html=1;fillColor=#FFB593;" vertex="1" parent="1">
          <mxGeometry x="-260" y="1120" width="160" height="128" as="geometry" />
        </mxCell>
        <mxCell id="dHXijJGids8KDnf2CaCL-7" value="&lt;div&gt;&amp;nbsp;&amp;nbsp;&lt;span style=&quot;background-color: transparent;&quot;&gt;U13&lt;/span&gt;&lt;/div&gt;&lt;div&gt;&amp;nbsp; U15&lt;/div&gt;&lt;div&gt;&amp;nbsp; U17&lt;/div&gt;&lt;div&gt;&amp;nbsp; U19&lt;/div&gt;&lt;div&gt;&amp;nbsp; ERWACHSENE&lt;/div&gt;&lt;div&gt;&lt;br&gt;&lt;/div&gt;" style="text;strokeColor=none;fillColor=none;align=left;verticalAlign=top;spacingLeft=4;spacingRight=4;overflow=hidden;rotatable=0;points=[[0,0.5],[1,0.5]];portConstraint=eastwest;whiteSpace=wrap;html=1;" vertex="1" parent="dHXijJGids8KDnf2CaCL-6">
          <mxGeometry y="26" width="160" height="94" as="geometry" />
        </mxCell>
        <mxCell id="dHXijJGids8KDnf2CaCL-8" value="" style="line;strokeWidth=1;fillColor=none;align=left;verticalAlign=middle;spacingTop=-1;spacingLeft=3;spacingRight=3;rotatable=0;labelPosition=right;points=[];portConstraint=eastwest;strokeColor=inherit;" vertex="1" parent="dHXijJGids8KDnf2CaCL-6">
          <mxGeometry y="120" width="160" height="8" as="geometry" />
        </mxCell>
        <mxCell id="dHXijJGids8KDnf2CaCL-9" value="abstract class Person&amp;nbsp;" style="swimlane;fontStyle=1;align=center;verticalAlign=top;childLayout=stackLayout;horizontal=1;startSize=26;horizontalStack=0;resizeParent=1;resizeParentMax=0;resizeLast=0;collapsible=1;marginBottom=0;whiteSpace=wrap;html=1;fillColor=#ACCBFF;" vertex="1" parent="1">
          <mxGeometry x="530" y="760" width="160" height="98" as="geometry" />
        </mxCell>
        <mxCell id="dHXijJGids8KDnf2CaCL-10" value="&lt;div&gt;&amp;nbsp; -vorname: String&lt;/div&gt;&lt;div&gt;&amp;nbsp; -nachname: String&lt;/div&gt;&lt;div&gt;&amp;nbsp; -kontakt: Kontaktinfo&lt;/div&gt;" style="text;strokeColor=none;fillColor=none;align=left;verticalAlign=top;spacingLeft=4;spacingRight=4;overflow=hidden;rotatable=0;points=[[0,0.5],[1,0.5]];portConstraint=eastwest;whiteSpace=wrap;html=1;" vertex="1" parent="dHXijJGids8KDnf2CaCL-9">
          <mxGeometry y="26" width="160" height="64" as="geometry" />
        </mxCell>
        <mxCell id="dHXijJGids8KDnf2CaCL-11" value="" style="line;strokeWidth=1;fillColor=none;align=left;verticalAlign=middle;spacingTop=-1;spacingLeft=3;spacingRight=3;rotatable=0;labelPosition=right;points=[];portConstraint=eastwest;strokeColor=inherit;" vertex="1" parent="dHXijJGids8KDnf2CaCL-9">
          <mxGeometry y="90" width="160" height="8" as="geometry" />
        </mxCell>
        <mxCell id="dHXijJGids8KDnf2CaCL-13" value="class Kontaktinfo" style="swimlane;fontStyle=1;align=center;verticalAlign=top;childLayout=stackLayout;horizontal=1;startSize=26;horizontalStack=0;resizeParent=1;resizeParentMax=0;resizeLast=0;collapsible=1;marginBottom=0;whiteSpace=wrap;html=1;fillColor=#ACFFC4;" vertex="1" parent="1">
          <mxGeometry x="380" y="1280" width="160" height="74" as="geometry" />
        </mxCell>
        <mxCell id="dHXijJGids8KDnf2CaCL-14" value="&lt;div&gt;&lt;span style=&quot;background-color: transparent; color: light-dark(rgb(0, 0, 0), rgb(255, 255, 255));&quot;&gt;&amp;nbsp;&lt;/span&gt;&lt;span style=&quot;background-color: transparent;&quot;&gt;&amp;nbsp; +telefon: String&lt;/span&gt;&lt;br&gt;&lt;/div&gt;&lt;div&gt;&amp;nbsp; +email: String&lt;/div&gt;" style="text;strokeColor=none;fillColor=none;align=left;verticalAlign=top;spacingLeft=4;spacingRight=4;overflow=hidden;rotatable=0;points=[[0,0.5],[1,0.5]];portConstraint=eastwest;whiteSpace=wrap;html=1;" vertex="1" parent="dHXijJGids8KDnf2CaCL-13">
          <mxGeometry y="26" width="160" height="40" as="geometry" />
        </mxCell>
        <mxCell id="dHXijJGids8KDnf2CaCL-15" value="" style="line;strokeWidth=1;fillColor=none;align=left;verticalAlign=middle;spacingTop=-1;spacingLeft=3;spacingRight=3;rotatable=0;labelPosition=right;points=[];portConstraint=eastwest;strokeColor=inherit;" vertex="1" parent="dHXijJGids8KDnf2CaCL-13">
          <mxGeometry y="66" width="160" height="8" as="geometry" />
        </mxCell>
        <mxCell id="dHXijJGids8KDnf2CaCL-43" style="edgeStyle=orthogonalEdgeStyle;rounded=0;orthogonalLoop=1;jettySize=auto;html=1;" edge="1" parent="1" source="dHXijJGids8KDnf2CaCL-17" target="dHXijJGids8KDnf2CaCL-13">
          <mxGeometry relative="1" as="geometry" />
        </mxCell>
        <mxCell id="dHXijJGids8KDnf2CaCL-17" value="class Spieler" style="swimlane;fontStyle=1;align=center;verticalAlign=top;childLayout=stackLayout;horizontal=1;startSize=26;horizontalStack=0;resizeParent=1;resizeParentMax=0;resizeLast=0;collapsible=1;marginBottom=0;whiteSpace=wrap;html=1;fillColor=#A6FFC2;" vertex="1" parent="1">
          <mxGeometry x="280" y="1100" width="160" height="74" as="geometry" />
        </mxCell>
        <mxCell id="dHXijJGids8KDnf2CaCL-18" value="&amp;nbsp; -trikotnummer: int" style="text;strokeColor=none;fillColor=none;align=left;verticalAlign=top;spacingLeft=4;spacingRight=4;overflow=hidden;rotatable=0;points=[[0,0.5],[1,0.5]];portConstraint=eastwest;whiteSpace=wrap;html=1;" vertex="1" parent="dHXijJGids8KDnf2CaCL-17">
          <mxGeometry y="26" width="160" height="40" as="geometry" />
        </mxCell>
        <mxCell id="dHXijJGids8KDnf2CaCL-19" value="" style="line;strokeWidth=1;fillColor=none;align=left;verticalAlign=middle;spacingTop=-1;spacingLeft=3;spacingRight=3;rotatable=0;labelPosition=right;points=[];portConstraint=eastwest;strokeColor=inherit;" vertex="1" parent="dHXijJGids8KDnf2CaCL-17">
          <mxGeometry y="66" width="160" height="8" as="geometry" />
        </mxCell>
        <mxCell id="dHXijJGids8KDnf2CaCL-42" style="edgeStyle=orthogonalEdgeStyle;rounded=0;orthogonalLoop=1;jettySize=auto;html=1;" edge="1" parent="1" source="dHXijJGids8KDnf2CaCL-20" target="dHXijJGids8KDnf2CaCL-13">
          <mxGeometry relative="1" as="geometry" />
        </mxCell>
        <mxCell id="dHXijJGids8KDnf2CaCL-20" value="class Trainer" style="swimlane;fontStyle=1;align=center;verticalAlign=top;childLayout=stackLayout;horizontal=1;startSize=26;horizontalStack=0;resizeParent=1;resizeParentMax=0;resizeLast=0;collapsible=1;marginBottom=0;whiteSpace=wrap;html=1;fillColor=#AAFFC0;" vertex="1" parent="1">
          <mxGeometry x="500" y="1090" width="160" height="74" as="geometry" />
        </mxCell>
        <mxCell id="dHXijJGids8KDnf2CaCL-21" value="&amp;nbsp; -rolle: String" style="text;strokeColor=none;fillColor=none;align=left;verticalAlign=top;spacingLeft=4;spacingRight=4;overflow=hidden;rotatable=0;points=[[0,0.5],[1,0.5]];portConstraint=eastwest;whiteSpace=wrap;html=1;" vertex="1" parent="dHXijJGids8KDnf2CaCL-20">
          <mxGeometry y="26" width="160" height="40" as="geometry" />
        </mxCell>
        <mxCell id="dHXijJGids8KDnf2CaCL-22" value="" style="line;strokeWidth=1;fillColor=none;align=left;verticalAlign=middle;spacingTop=-1;spacingLeft=3;spacingRight=3;rotatable=0;labelPosition=right;points=[];portConstraint=eastwest;strokeColor=inherit;" vertex="1" parent="dHXijJGids8KDnf2CaCL-20">
          <mxGeometry y="66" width="160" height="8" as="geometry" />
        </mxCell>
        <mxCell id="dHXijJGids8KDnf2CaCL-26" value="class Mannschaft" style="swimlane;fontStyle=1;align=center;verticalAlign=top;childLayout=stackLayout;horizontal=1;startSize=30;horizontalStack=0;resizeParent=1;resizeParentMax=0;resizeLast=0;collapsible=1;marginBottom=0;whiteSpace=wrap;html=1;fillColor=#ACFFC4;" vertex="1" parent="1">
          <mxGeometry x="40" y="748" width="300" height="240" as="geometry" />
        </mxCell>
        <mxCell id="dHXijJGids8KDnf2CaCL-27" value="&lt;div&gt;&amp;nbsp;-name: String&lt;/div&gt;&lt;div&gt;&amp;nbsp;-geschlecht: Geschlecht&lt;/div&gt;&lt;div&gt;&amp;nbsp;-altersgruppe: Altersgruppe&lt;/div&gt;&lt;div&gt;&amp;nbsp;-spieler: List&amp;lt;Spieler&amp;gt;&lt;/div&gt;&lt;div&gt;&amp;nbsp;-trainer: List&amp;lt;Trainer&amp;gt;&lt;/div&gt;" style="text;strokeColor=none;fillColor=none;align=left;verticalAlign=top;spacingLeft=4;spacingRight=4;overflow=hidden;rotatable=0;points=[[0,0.5],[1,0.5]];portConstraint=eastwest;whiteSpace=wrap;html=1;" vertex="1" parent="dHXijJGids8KDnf2CaCL-26">
          <mxGeometry y="30" width="300" height="110" as="geometry" />
        </mxCell>
        <mxCell id="dHXijJGids8KDnf2CaCL-28" value="" style="line;strokeWidth=1;fillColor=none;align=left;verticalAlign=middle;spacingTop=-1;spacingLeft=3;spacingRight=3;rotatable=0;labelPosition=right;points=[];portConstraint=eastwest;strokeColor=inherit;" vertex="1" parent="dHXijJGids8KDnf2CaCL-26">
          <mxGeometry y="140" width="300" height="8" as="geometry" />
        </mxCell>
        <mxCell id="dHXijJGids8KDnf2CaCL-29" value="&lt;div&gt;&amp;nbsp; +addSpieler(s: Spieler)&lt;/div&gt;&lt;div&gt;&amp;nbsp; +addTrainer(t: Trainer)&lt;/div&gt;&lt;div&gt;&amp;nbsp; +removeSpielerByNachname(nachname: String)&lt;/div&gt;&lt;div&gt;&amp;nbsp; +removeTrainerByNachname(nachname: String)&lt;/div&gt;" style="text;strokeColor=none;fillColor=none;align=left;verticalAlign=top;spacingLeft=4;spacingRight=4;overflow=hidden;rotatable=0;points=[[0,0.5],[1,0.5]];portConstraint=eastwest;whiteSpace=wrap;html=1;" vertex="1" parent="dHXijJGids8KDnf2CaCL-26">
          <mxGeometry y="148" width="300" height="92" as="geometry" />
        </mxCell>
        <mxCell id="dHXijJGids8KDnf2CaCL-30" value="class Verein" style="swimlane;fontStyle=1;align=center;verticalAlign=top;childLayout=stackLayout;horizontal=1;startSize=30;horizontalStack=0;resizeParent=1;resizeParentMax=0;resizeLast=0;collapsible=1;marginBottom=0;whiteSpace=wrap;html=1;fillColor=#89FF9E;" vertex="1" parent="1">
          <mxGeometry x="40" y="460" width="290" height="170" as="geometry" />
        </mxCell>
        <mxCell id="dHXijJGids8KDnf2CaCL-31" value="&lt;div&gt;&amp;nbsp; -name: String&lt;/div&gt;&lt;div&gt;&amp;nbsp; -adresse: String&lt;/div&gt;&lt;div&gt;&amp;nbsp; -mannschaften: List&amp;lt;Mannschaft&amp;gt;&lt;/div&gt;" style="text;strokeColor=none;fillColor=none;align=left;verticalAlign=top;spacingLeft=4;spacingRight=4;overflow=hidden;rotatable=0;points=[[0,0.5],[1,0.5]];portConstraint=eastwest;whiteSpace=wrap;html=1;" vertex="1" parent="dHXijJGids8KDnf2CaCL-30">
          <mxGeometry y="30" width="290" height="60" as="geometry" />
        </mxCell>
        <mxCell id="dHXijJGids8KDnf2CaCL-32" value="" style="line;strokeWidth=1;fillColor=none;align=left;verticalAlign=middle;spacingTop=-1;spacingLeft=3;spacingRight=3;rotatable=0;labelPosition=right;points=[];portConstraint=eastwest;strokeColor=inherit;" vertex="1" parent="dHXijJGids8KDnf2CaCL-30">
          <mxGeometry y="90" width="290" height="8" as="geometry" />
        </mxCell>
        <mxCell id="dHXijJGids8KDnf2CaCL-33" value="&lt;div&gt;&amp;nbsp; +addMannschaft(m: Mannschaft)&lt;/div&gt;&lt;div&gt;&amp;nbsp; +removeMannschaftByName(name: String)&lt;/div&gt;&lt;div&gt;&amp;nbsp; +getMannschaften(): List&amp;lt;Mannschaft&amp;gt;&lt;/div&gt;" style="text;strokeColor=none;fillColor=none;align=left;verticalAlign=top;spacingLeft=4;spacingRight=4;overflow=hidden;rotatable=0;points=[[0,0.5],[1,0.5]];portConstraint=eastwest;whiteSpace=wrap;html=1;" vertex="1" parent="dHXijJGids8KDnf2CaCL-30">
          <mxGeometry y="98" width="290" height="72" as="geometry" />
        </mxCell>
        <mxCell id="dHXijJGids8KDnf2CaCL-34" value="class VereinsController" style="swimlane;fontStyle=1;align=center;verticalAlign=top;childLayout=stackLayout;horizontal=1;startSize=30;horizontalStack=0;resizeParent=1;resizeParentMax=0;resizeLast=0;collapsible=1;marginBottom=0;whiteSpace=wrap;html=1;fillColor=#BAFFDE;" vertex="1" parent="1">
          <mxGeometry x="20" y="60" width="300" height="270" as="geometry" />
        </mxCell>
        <mxCell id="dHXijJGids8KDnf2CaCL-35" value="&amp;nbsp; -verein: Verein" style="text;strokeColor=none;fillColor=none;align=left;verticalAlign=top;spacingLeft=4;spacingRight=4;overflow=hidden;rotatable=0;points=[[0,0.5],[1,0.5]];portConstraint=eastwest;whiteSpace=wrap;html=1;" vertex="1" parent="dHXijJGids8KDnf2CaCL-34">
          <mxGeometry y="30" width="300" height="30" as="geometry" />
        </mxCell>
        <mxCell id="dHXijJGids8KDnf2CaCL-36" value="" style="line;strokeWidth=1;fillColor=none;align=left;verticalAlign=middle;spacingTop=-1;spacingLeft=3;spacingRight=3;rotatable=0;labelPosition=right;points=[];portConstraint=eastwest;strokeColor=inherit;" vertex="1" parent="dHXijJGids8KDnf2CaCL-34">
          <mxGeometry y="60" width="300" height="8" as="geometry" />
        </mxCell>
        <mxCell id="dHXijJGids8KDnf2CaCL-37" value="&lt;div&gt;&amp;nbsp; +mannschaftHinzufuegen(...)&lt;/div&gt;&lt;div&gt;&amp;nbsp; +spielerHinzufuegen(...)&lt;/div&gt;&lt;div&gt;&amp;nbsp; +trainerHinzufuegen(...)&lt;/div&gt;&lt;div&gt;&amp;nbsp; +spielerEntfernen(...)&lt;/div&gt;&lt;div&gt;&amp;nbsp; +trainerEntfernen(...)&lt;/div&gt;&lt;div&gt;&amp;nbsp; +alleSpielerAnzeigen()&lt;/div&gt;&lt;div&gt;&amp;nbsp; +alleTrainerAnzeigen()&lt;/div&gt;&lt;div&gt;&amp;nbsp; +spielerEinesTeamsAnzeigen(String)&lt;/div&gt;&lt;div&gt;&amp;nbsp; +spielerNachNachnameSuchen(String)&lt;/div&gt;&lt;div&gt;&amp;nbsp; +getAlleMannschaften(): List&amp;lt;Mannschaft&amp;gt;&lt;/div&gt;&lt;div&gt;&amp;nbsp; +vereinAnzeigen()&lt;/div&gt;" style="text;strokeColor=none;fillColor=none;align=left;verticalAlign=top;spacingLeft=4;spacingRight=4;overflow=hidden;rotatable=0;points=[[0,0.5],[1,0.5]];portConstraint=eastwest;whiteSpace=wrap;html=1;" vertex="1" parent="dHXijJGids8KDnf2CaCL-34">
          <mxGeometry y="68" width="300" height="202" as="geometry" />
        </mxCell>
        <mxCell id="dHXijJGids8KDnf2CaCL-38" style="edgeStyle=orthogonalEdgeStyle;rounded=0;orthogonalLoop=1;jettySize=auto;html=1;entryX=0.464;entryY=0.004;entryDx=0;entryDy=0;entryPerimeter=0;" edge="1" parent="1" source="dHXijJGids8KDnf2CaCL-34" target="dHXijJGids8KDnf2CaCL-30">
          <mxGeometry relative="1" as="geometry" />
        </mxCell>
        <mxCell id="dHXijJGids8KDnf2CaCL-39" value="" style="endArrow=diamondThin;endFill=0;endSize=24;html=1;rounded=0;entryX=0.521;entryY=1.029;entryDx=0;entryDy=0;entryPerimeter=0;exitX=0.5;exitY=0;exitDx=0;exitDy=0;" edge="1" parent="1" source="dHXijJGids8KDnf2CaCL-26" target="dHXijJGids8KDnf2CaCL-33">
          <mxGeometry width="160" relative="1" as="geometry">
            <mxPoint x="180" y="740" as="sourcePoint" />
            <mxPoint x="410" y="760" as="targetPoint" />
          </mxGeometry>
        </mxCell>
        <mxCell id="dHXijJGids8KDnf2CaCL-40" value="" style="endArrow=diamondThin;endFill=0;endSize=24;html=1;rounded=0;entryX=0.75;entryY=1.029;entryDx=0;entryDy=0;entryPerimeter=0;exitX=0.5;exitY=0;exitDx=0;exitDy=0;" edge="1" parent="1" target="dHXijJGids8KDnf2CaCL-29">
          <mxGeometry width="160" relative="1" as="geometry">
            <mxPoint x="350" y="1100" as="sourcePoint" />
            <mxPoint x="351" y="984" as="targetPoint" />
          </mxGeometry>
        </mxCell>
        <mxCell id="dHXijJGids8KDnf2CaCL-41" value="" style="endArrow=diamondThin;endFill=0;endSize=24;html=1;rounded=0;entryX=1;entryY=0.5;entryDx=0;entryDy=0;exitX=0.5;exitY=0;exitDx=0;exitDy=0;" edge="1" parent="1" source="dHXijJGids8KDnf2CaCL-20" target="dHXijJGids8KDnf2CaCL-29">
          <mxGeometry width="160" relative="1" as="geometry">
            <mxPoint x="579.4100000000001" y="1066" as="sourcePoint" />
            <mxPoint x="580.4100000000001" y="950" as="targetPoint" />
            <Array as="points" />
          </mxGeometry>
        </mxCell>
        <mxCell id="dHXijJGids8KDnf2CaCL-44" style="edgeStyle=orthogonalEdgeStyle;rounded=0;orthogonalLoop=1;jettySize=auto;html=1;entryX=0.415;entryY=0.071;entryDx=0;entryDy=0;entryPerimeter=0;" edge="1" parent="1" source="dHXijJGids8KDnf2CaCL-29" target="dHXijJGids8KDnf2CaCL-2">
          <mxGeometry relative="1" as="geometry" />
        </mxCell>
        <mxCell id="dHXijJGids8KDnf2CaCL-45" style="edgeStyle=orthogonalEdgeStyle;rounded=0;orthogonalLoop=1;jettySize=auto;html=1;entryX=0.41;entryY=0.026;entryDx=0;entryDy=0;entryPerimeter=0;" edge="1" parent="1" source="dHXijJGids8KDnf2CaCL-27" target="dHXijJGids8KDnf2CaCL-6">
          <mxGeometry relative="1" as="geometry" />
        </mxCell>
        <mxCell id="dHXijJGids8KDnf2CaCL-46" value="" style="endArrow=block;endSize=16;endFill=0;html=1;rounded=0;exitX=0.829;exitY=0.036;exitDx=0;exitDy=0;exitPerimeter=0;" edge="1" parent="1" source="dHXijJGids8KDnf2CaCL-17">
          <mxGeometry width="160" relative="1" as="geometry">
            <mxPoint x="480" y="880" as="sourcePoint" />
            <mxPoint x="600" y="860" as="targetPoint" />
          </mxGeometry>
        </mxCell>
        <mxCell id="dHXijJGids8KDnf2CaCL-47" value="" style="endArrow=block;endSize=16;endFill=0;html=1;rounded=0;exitX=0.613;exitY=0.018;exitDx=0;exitDy=0;exitPerimeter=0;" edge="1" parent="1" source="dHXijJGids8KDnf2CaCL-20">
          <mxGeometry width="160" relative="1" as="geometry">
            <mxPoint x="423" y="1113" as="sourcePoint" />
            <mxPoint x="640" y="860" as="targetPoint" />
          </mxGeometry>
        </mxCell>
        <mxCell id="dHXijJGids8KDnf2CaCL-48" value="&lt;font style=&quot;font-size: 14px;&quot;&gt;&lt;b&gt;1&lt;/b&gt;&lt;/font&gt;" style="text;html=1;align=center;verticalAlign=middle;whiteSpace=wrap;rounded=0;" vertex="1" parent="1">
          <mxGeometry x="240" y="988" width="20" height="30" as="geometry" />
        </mxCell>
        <mxCell id="dHXijJGids8KDnf2CaCL-49" value="&lt;font style=&quot;font-size: 14px;&quot;&gt;&lt;b&gt;1&lt;/b&gt;&lt;/font&gt;" style="text;html=1;align=center;verticalAlign=middle;whiteSpace=wrap;rounded=0;" vertex="1" parent="1">
          <mxGeometry x="350" y="910" width="20" height="30" as="geometry" />
        </mxCell>
        <mxCell id="dHXijJGids8KDnf2CaCL-50" value="&lt;font style=&quot;font-size: 14px;&quot;&gt;&lt;b&gt;1&lt;/b&gt;&lt;/font&gt;" style="text;html=1;align=center;verticalAlign=middle;whiteSpace=wrap;rounded=0;" vertex="1" parent="1">
          <mxGeometry x="200" y="630" width="20" height="30" as="geometry" />
        </mxCell>
        <mxCell id="dHXijJGids8KDnf2CaCL-51" value="&lt;h1&gt;&lt;font face=&quot;Lucida Console&quot; style=&quot;font-size: 14px;&quot;&gt;*&lt;/font&gt;&lt;/h1&gt;" style="text;html=1;align=center;verticalAlign=middle;whiteSpace=wrap;rounded=0;" vertex="1" parent="1">
          <mxGeometry x="190" y="718" width="20" height="30" as="geometry" />
        </mxCell>
        <mxCell id="dHXijJGids8KDnf2CaCL-52" value="&lt;h1&gt;&lt;font face=&quot;Lucida Console&quot; style=&quot;font-size: 14px;&quot;&gt;*&lt;/font&gt;&lt;/h1&gt;" style="text;html=1;align=center;verticalAlign=middle;whiteSpace=wrap;rounded=0;" vertex="1" parent="1">
          <mxGeometry x="350" y="1070" width="20" height="30" as="geometry" />
        </mxCell>
        <mxCell id="dHXijJGids8KDnf2CaCL-53" value="&lt;h1&gt;&lt;font face=&quot;Lucida Console&quot; style=&quot;font-size: 14px;&quot;&gt;*&lt;/font&gt;&lt;/h1&gt;" style="text;html=1;align=center;verticalAlign=middle;whiteSpace=wrap;rounded=0;" vertex="1" parent="1">
          <mxGeometry x="530" y="1060" width="20" height="30" as="geometry" />
        </mxCell>
      </root>
    </mxGraphModel>
  </diagram>
</mxfile>
